<svg width="32" height="32" viewBox="0 0 32 32" fill="none" xmlns="http://www.w3.org/2000/svg">
<g clip-path="url(#clip0_3_11)">
<circle cx="15" cy="16" r="15" fill="black"/>
<path d="M8.00012 11.804C7.99111 11.6407 8.49429 11.3196 8.51942 11.3011C9.1125 10.8651 9.74286 10.4793 10.4085 10.1655C11.5226 9.64034 12.8123 9.28108 14.0296 9.09769C15.7472 8.83891 17.6105 9.06539 19.0316 10.126C20.6488 11.3329 21.5186 12.903 21.6085 14.9311C21.6981 16.9531 21.202 19.1669 20.059 20.8522C18.9437 22.4966 17.039 23.7184 15.0569 23.9059C13.9007 24.0153 11.5429 24.3196 11.391 22.6517C11.2769 21.3987 12.1972 20.1933 12.9685 19.3211C14.2339 17.8901 15.9299 16.8802 17.7067 16.2221C19.794 15.4491 21.9544 15.3708 24.1544 15.5103C25.2339 15.5787 26.3346 15.6792 27.3965 15.8944C29.0469 16.229 30.4758 17.0253 32 17.7024" stroke="white" stroke-width="3" stroke-linecap="round"/>
</g>
<defs>
<clipPath id="clip0_3_11">
<rect width="32" height="32" fill="white"/>
</clipPath>
</defs>
</svg>
